<svg xmlns="http://www.w3.org/2000/svg" xmlns:xlink="http://www.w3.org/1999/xlink" width="377" zoomAndPan="magnify" viewBox="0 0 282.96 283.499996" height="377" preserveAspectRatio="xMidYMid meet" version="1.0"><defs><clipPath id="id1"><path d="M 0.230469 0 L 282.691406 0 L 282.691406 282.5 L 0.230469 282.5 Z M 0.230469 0 " clip-rule="nonzero"/></clipPath><clipPath id="id2"><path d="M 65.5625 42.347656 L 239.699219 42.347656 L 239.699219 240.398438 L 65.5625 240.398438 Z M 65.5625 42.347656 " clip-rule="nonzero"/></clipPath><clipPath id="id3"><path d="M 65.5625 42.347656 L 104 42.347656 L 104 88 L 65.5625 88 Z M 65.5625 42.347656 " clip-rule="nonzero"/></clipPath></defs><g clip-path="url(#id1)"><path fill="#281c4b" d="M 141.480469 0 C 63.46875 0 0.230469 63.238281 0.230469 141.25 C 0.230469 219.261719 63.46875 282.5 141.480469 282.5 C 219.492188 282.5 282.730469 219.261719 282.730469 141.25 C 282.730469 63.238281 219.492188 0 141.480469 0 " fill-opacity="1" fill-rule="nonzero"/></g><g clip-path="url(#id2)"><path fill="#f10065" d="M 231.921875 153.367188 C 228.011719 146.847656 223.015625 141.519531 217.15625 137.578125 C 221.210938 134.417969 224.589844 130.746094 227.261719 126.585938 C 231.75 119.582031 234.03125 111.554688 234.03125 102.726562 C 234.03125 65.007812 207.117188 42.480469 162.050781 42.480469 L 119.078125 42.480469 L 119.078125 87.65625 L 137.726562 87.65625 L 137.726562 87.792969 L 165.285156 87.792969 C 183.144531 87.792969 184.625 95.84375 184.625 101.28125 C 184.625 104.457031 187.859375 116.34375 165.285156 116.34375 L 155.847656 116.34375 L 155.847656 160.605469 L 169.523438 160.605469 C 181.3125 160.605469 190.28125 166 190.28125 177.371094 C 190.28125 192.136719 172.410156 194.148438 169.523438 194.148438 L 103.085938 194.148438 L 103.085938 103.5625 L 65.554688 103.5625 L 65.554688 240.246094 L 162.050781 240.246094 C 184.84375 240.246094 202.976562 235.914062 215.933594 227.371094 C 231.695312 216.988281 239.6875 200.78125 239.6875 179.21875 C 239.6875 171.152344 236.78125 161.488281 231.921875 153.367188 " fill-opacity="1" fill-rule="nonzero"/></g><g clip-path="url(#id3)"><path fill="#ed5b2d" d="M 103.085938 42.480469 L 103.085938 87.65625 L 65.554688 87.65625 L 65.554688 42.480469 L 103.085938 42.480469 " fill-opacity="1" fill-rule="nonzero"/></g></svg>