<svg xmlns="http://www.w3.org/2000/svg" xmlns:xlink="http://www.w3.org/1999/xlink" width="377" zoomAndPan="magnify" viewBox="0 0 282.96 283.499996" height="377" preserveAspectRatio="xMidYMid meet" version="1.0"><defs><g/><clipPath id="id1"><path d="M 0.230469 0 L 282.691406 0 L 282.691406 282.5 L 0.230469 282.5 Z M 0.230469 0 " clip-rule="nonzero"/></clipPath><clipPath id="id2"><path d="M 94.933594 43.832031 L 203.300781 43.832031 L 203.300781 167.144531 L 94.933594 167.144531 Z M 94.933594 43.832031 " clip-rule="nonzero"/></clipPath><clipPath id="id3"><path d="M 94.933594 43.832031 L 119 43.832031 L 119 73 L 94.933594 73 Z M 94.933594 43.832031 " clip-rule="nonzero"/></clipPath></defs><g clip-path="url(#id1)"><path fill="#281c4b" d="M 141.480469 0 C 63.46875 0 0.230469 63.238281 0.230469 141.25 C 0.230469 219.261719 63.46875 282.5 141.480469 282.5 C 219.492188 282.5 282.730469 219.261719 282.730469 141.25 C 282.730469 63.238281 219.492188 0 141.480469 0 " fill-opacity="1" fill-rule="nonzero"/></g><g clip-path="url(#id2)"><path fill="#f10065" d="M 198.460938 112.957031 C 196.027344 108.894531 192.917969 105.578125 189.269531 103.125 C 191.792969 101.15625 193.898438 98.871094 195.558594 96.277344 C 198.351562 91.917969 199.773438 86.921875 199.773438 81.421875 C 199.773438 57.933594 183.023438 43.90625 154.976562 43.90625 L 128.238281 43.90625 L 128.238281 72.039062 L 139.839844 72.039062 L 139.839844 72.121094 L 156.992188 72.121094 C 168.105469 72.121094 169.027344 77.136719 169.027344 80.523438 C 169.027344 82.5 171.039062 89.902344 156.992188 89.902344 L 151.117188 89.902344 L 151.117188 117.464844 L 159.628906 117.464844 C 166.964844 117.464844 172.546875 120.824219 172.546875 127.90625 C 172.546875 137.097656 161.425781 138.347656 159.628906 138.347656 L 118.285156 138.347656 L 118.285156 81.941406 L 94.929688 81.941406 L 94.929688 167.054688 L 154.976562 167.054688 C 169.160156 167.054688 180.445312 164.355469 188.511719 159.039062 C 198.320312 152.570312 203.292969 142.480469 203.292969 129.054688 C 203.292969 124.03125 201.484375 118.011719 198.460938 112.957031 " fill-opacity="1" fill-rule="nonzero"/></g><g clip-path="url(#id3)"><path fill="#ed5b2d" d="M 118.285156 43.90625 L 118.285156 72.039062 L 94.929688 72.039062 L 94.929688 43.90625 L 118.285156 43.90625 " fill-opacity="1" fill-rule="nonzero"/></g><g fill="#d9d9d9" fill-opacity="1"><g transform="translate(50.51695, 222.188362)"><g><path d="M 32.628906 -24.050781 L 32.628906 -26.417969 C 32.628906 -29.164062 32.082031 -31.277344 30.980469 -32.671875 C 29.882812 -34.109375 28.023438 -34.828125 25.445312 -34.828125 L 6.761719 -34.828125 L 6.761719 -34.785156 C 5.535156 -34.699219 4.480469 -34.023438 3.847656 -33.011719 C 3.675781 -32.671875 3.507812 -32.292969 3.421875 -31.953125 L 3.382812 -3.085938 C 3.464844 -2.621094 3.636719 -2.15625 3.847656 -1.773438 C 4.523438 -0.632812 5.75 0.0429688 7.058594 0.0429688 L 26.078125 0.0429688 C 27.347656 0.0429688 28.402344 -0.167969 29.25 -0.589844 C 30.136719 -1.015625 30.855469 -1.605469 31.363281 -2.410156 C 31.910156 -3.171875 32.25 -4.101562 32.503906 -5.199219 C 32.714844 -6.253906 32.839844 -7.480469 32.839844 -8.792969 L 32.839844 -11.625 C 32.839844 -14.414062 32.039062 -16.527344 30.515625 -17.921875 C 31.953125 -19.359375 32.628906 -21.429688 32.628906 -24.050781 Z M 9.59375 -6.464844 L 9.59375 -28.320312 C 9.59375 -28.488281 9.636719 -28.570312 9.679688 -28.570312 L 24.34375 -28.570312 C 25.148438 -28.570312 25.738281 -28.359375 26.078125 -27.980469 C 26.417969 -27.601562 26.585938 -26.921875 26.585938 -26.035156 L 26.585938 -23.121094 C 26.585938 -22.316406 26.417969 -21.683594 26.035156 -21.261719 C 25.699219 -20.878906 24.980469 -20.667969 23.878906 -20.667969 L 15.679688 -20.667969 C 14.921875 -20.667969 14.285156 -20.035156 14.285156 -19.273438 L 14.285156 -15.808594 C 14.285156 -15.003906 14.921875 -14.414062 15.679688 -14.414062 L 23.878906 -14.414062 C 24.980469 -14.414062 25.699219 -14.160156 26.078125 -13.738281 C 26.417969 -13.3125 26.628906 -12.636719 26.628906 -11.707031 L 26.628906 -8.832031 C 26.628906 -7.863281 26.457031 -7.183594 26.121094 -6.804688 C 25.78125 -6.425781 25.191406 -6.253906 24.34375 -6.253906 L 9.636719 -6.253906 C 9.636719 -6.253906 9.59375 -6.296875 9.59375 -6.464844 Z M 9.59375 -6.464844 "/></g></g></g><g fill="#d9d9d9" fill-opacity="1"><g transform="translate(83.564591, 222.188362)"><g><path d="M 32.164062 -31.742188 C 31.320312 -32.796875 30.21875 -33.601562 28.867188 -34.109375 C 27.558594 -34.574219 25.953125 -34.828125 24.09375 -34.828125 L 13.777344 -34.828125 C 11.917969 -34.828125 10.355469 -34.574219 9.046875 -34.109375 C 7.691406 -33.601562 6.59375 -32.796875 5.75 -31.742188 C 4.945312 -30.683594 4.3125 -29.289062 3.929688 -27.601562 C 3.550781 -25.953125 3.382812 -23.964844 3.382812 -21.597656 L 3.382812 -13.230469 C 3.382812 -10.863281 3.550781 -8.832031 3.929688 -7.183594 C 4.3125 -5.496094 4.945312 -4.101562 5.75 -3.042969 C 6.59375 -1.945312 7.691406 -1.140625 9.046875 -0.675781 C 10.3125 -0.210938 11.917969 0.0429688 13.777344 0.0429688 L 24.09375 0.0429688 C 25.953125 0.0429688 27.558594 -0.210938 28.867188 -0.675781 C 30.21875 -1.140625 31.320312 -1.945312 32.164062 -3 C 33.011719 -4.101562 33.601562 -5.496094 33.980469 -7.183594 C 34.320312 -8.832031 34.53125 -10.863281 34.53125 -13.230469 L 34.53125 -21.597656 C 34.53125 -23.921875 34.320312 -25.953125 33.980469 -27.601562 C 33.601562 -29.289062 33.011719 -30.683594 32.164062 -31.742188 Z M 28.234375 -22.316406 L 28.234375 -12.46875 C 28.234375 -11.242188 28.191406 -10.1875 28.023438 -9.339844 C 27.894531 -8.578125 27.640625 -7.902344 27.304688 -7.480469 C 27.007812 -7.015625 26.585938 -6.71875 26.035156 -6.550781 C 25.488281 -6.339844 24.769531 -6.253906 23.878906 -6.253906 L 13.988281 -6.253906 C 13.101562 -6.253906 12.382812 -6.339844 11.835938 -6.550781 C 11.285156 -6.71875 10.863281 -7.015625 10.566406 -7.480469 C 10.226562 -7.902344 10.015625 -8.578125 9.847656 -9.339844 C 9.722656 -10.1875 9.636719 -11.242188 9.636719 -12.46875 L 9.636719 -22.316406 C 9.636719 -23.542969 9.722656 -24.597656 9.847656 -25.445312 C 10.015625 -26.246094 10.226562 -26.882812 10.566406 -27.347656 C 10.863281 -27.769531 11.285156 -28.066406 11.835938 -28.277344 C 12.382812 -28.445312 13.101562 -28.570312 13.988281 -28.570312 L 23.878906 -28.570312 C 24.769531 -28.570312 25.488281 -28.445312 26.035156 -28.277344 C 26.585938 -28.066406 27.007812 -27.769531 27.304688 -27.347656 C 27.640625 -26.882812 27.894531 -26.246094 28.023438 -25.445312 C 28.191406 -24.597656 28.234375 -23.542969 28.234375 -22.316406 Z M 28.234375 -22.316406 "/></g></g></g><g fill="#d9d9d9" fill-opacity="1"><g transform="translate(118.302699, 222.188362)"><g><path d="M 32.164062 -31.742188 C 31.320312 -32.796875 30.21875 -33.601562 28.867188 -34.109375 C 27.558594 -34.574219 25.953125 -34.828125 24.09375 -34.828125 L 13.777344 -34.828125 C 11.917969 -34.828125 10.355469 -34.574219 9.046875 -34.109375 C 7.691406 -33.601562 6.59375 -32.796875 5.75 -31.742188 C 4.945312 -30.683594 4.3125 -29.289062 3.929688 -27.601562 C 3.550781 -25.953125 3.382812 -23.964844 3.382812 -21.597656 L 3.382812 -13.230469 C 3.382812 -10.863281 3.550781 -8.832031 3.929688 -7.183594 C 4.3125 -5.496094 4.945312 -4.101562 5.75 -3.042969 C 6.59375 -1.945312 7.691406 -1.140625 9.046875 -0.675781 C 10.3125 -0.210938 11.917969 0.0429688 13.777344 0.0429688 L 24.09375 0.0429688 C 25.953125 0.0429688 27.558594 -0.210938 28.867188 -0.675781 C 30.21875 -1.140625 31.320312 -1.945312 32.164062 -3 C 33.011719 -4.101562 33.601562 -5.496094 33.980469 -7.183594 C 34.320312 -8.832031 34.53125 -10.863281 34.53125 -13.230469 L 34.53125 -21.597656 C 34.53125 -23.921875 34.320312 -25.953125 33.980469 -27.601562 C 33.601562 -29.289062 33.011719 -30.683594 32.164062 -31.742188 Z M 28.234375 -22.316406 L 28.234375 -12.46875 C 28.234375 -11.242188 28.191406 -10.1875 28.023438 -9.339844 C 27.894531 -8.578125 27.640625 -7.902344 27.304688 -7.480469 C 27.007812 -7.015625 26.585938 -6.71875 26.035156 -6.550781 C 25.488281 -6.339844 24.769531 -6.253906 23.878906 -6.253906 L 13.988281 -6.253906 C 13.101562 -6.253906 12.382812 -6.339844 11.835938 -6.550781 C 11.285156 -6.71875 10.863281 -7.015625 10.566406 -7.480469 C 10.226562 -7.902344 10.015625 -8.578125 9.847656 -9.339844 C 9.722656 -10.1875 9.636719 -11.242188 9.636719 -12.46875 L 9.636719 -22.316406 C 9.636719 -23.542969 9.722656 -24.597656 9.847656 -25.445312 C 10.015625 -26.246094 10.226562 -26.882812 10.566406 -27.347656 C 10.863281 -27.769531 11.285156 -28.066406 11.835938 -28.277344 C 12.382812 -28.445312 13.101562 -28.570312 13.988281 -28.570312 L 23.878906 -28.570312 C 24.769531 -28.570312 25.488281 -28.445312 26.035156 -28.277344 C 26.585938 -28.066406 27.007812 -27.769531 27.304688 -27.347656 C 27.640625 -26.882812 27.894531 -26.246094 28.023438 -25.445312 C 28.191406 -24.597656 28.234375 -23.542969 28.234375 -22.316406 Z M 28.234375 -22.316406 "/></g></g></g><g fill="#d9d9d9" fill-opacity="1"><g transform="translate(153.040811, 222.188362)"><g><path d="M 23.625 -14.496094 C 22.78125 -15.890625 21.9375 -17.035156 21.089844 -17.835938 C 21.34375 -18.175781 21.597656 -18.511719 21.894531 -18.933594 C 22.230469 -19.484375 22.613281 -20.117188 23.035156 -20.835938 L 30.007812 -33.09375 C 30.136719 -33.390625 30.179688 -33.730469 30.136719 -34.109375 C 30.007812 -34.574219 29.671875 -34.828125 29.164062 -34.828125 L 24.980469 -34.828125 C 24.515625 -34.828125 24.21875 -34.742188 24.050781 -34.574219 C 23.878906 -34.445312 23.710938 -34.277344 23.585938 -33.980469 L 17.203125 -22.695312 C 16.949219 -22.273438 16.695312 -21.9375 16.484375 -21.640625 C 16.273438 -21.386719 16.019531 -21.175781 15.808594 -21.046875 C 15.554688 -20.921875 15.257812 -20.835938 14.921875 -20.796875 C 14.582031 -20.753906 14.117188 -20.710938 13.566406 -20.710938 L 9.679688 -20.710938 L 9.679688 -33.347656 C 9.679688 -34.699219 8.832031 -34.828125 8.496094 -34.828125 L 4.605469 -34.828125 C 4.269531 -34.828125 3.382812 -34.699219 3.382812 -33.347656 L 3.382812 -1.4375 C 3.382812 -0.125 4.269531 0.0429688 4.605469 0.0429688 L 8.496094 0.0429688 C 8.832031 0.0429688 9.679688 -0.125 9.679688 -1.4375 L 9.679688 -14.457031 L 13.949219 -14.457031 C 14.960938 -14.457031 15.722656 -14.328125 16.230469 -14.03125 C 16.695312 -13.777344 17.160156 -13.230469 17.625 -12.382812 L 24.21875 -0.804688 C 24.34375 -0.550781 24.515625 -0.339844 24.683594 -0.210938 C 24.851562 -0.0429688 25.148438 0.0429688 25.570312 0.0429688 L 30.136719 0.0429688 C 30.726562 0.0429688 31.066406 -0.296875 31.109375 -0.84375 C 31.148438 -1.269531 31.109375 -1.605469 30.9375 -1.816406 Z M 23.625 -14.496094 "/></g></g></g><g fill="#d9d9d9" fill-opacity="1"><g transform="translate(184.397999, 222.188362)"><g><path d="M 7.777344 -41.71875 L 5.03125 -41.71875 C 4.140625 -41.71875 3.382812 -41 3.382812 -40.070312 L 3.382812 -37.320312 C 3.382812 -36.390625 4.140625 -35.671875 5.03125 -35.671875 L 6.253906 -35.671875 L 6.253906 -32.671875 C 6.253906 -32.121094 6.679688 -31.699219 7.226562 -31.699219 C 7.691406 -31.699219 8.074219 -31.996094 8.15625 -32.417969 L 9.339844 -36.730469 C 9.382812 -36.898438 9.425781 -37.109375 9.425781 -37.320312 L 9.425781 -40.070312 C 9.425781 -41 8.707031 -41.71875 7.777344 -41.71875 Z M 7.777344 -41.71875 "/></g></g></g><g fill="#d9d9d9" fill-opacity="1"><g transform="translate(194.032772, 222.188362)"><g><path d="M 32.25 -26.964844 C 31.828125 -28.742188 31.109375 -30.21875 30.21875 -31.402344 C 29.289062 -32.546875 28.066406 -33.433594 26.628906 -33.980469 C 25.191406 -34.53125 23.5 -34.828125 21.511719 -34.828125 L 6.761719 -34.828125 L 6.761719 -34.785156 C 5.535156 -34.699219 4.480469 -34.023438 3.847656 -33.011719 C 3.675781 -32.671875 3.507812 -32.292969 3.421875 -31.953125 L 3.382812 -3.085938 C 3.464844 -2.621094 3.636719 -2.15625 3.847656 -1.773438 C 4.523438 -0.632812 5.75 0.0429688 7.058594 0.0429688 L 21.511719 0.0429688 C 23.5 0.0429688 25.234375 -0.253906 26.628906 -0.804688 C 28.066406 -1.351562 29.289062 -2.238281 30.21875 -3.421875 C 31.109375 -4.566406 31.828125 -6.042969 32.25 -7.820312 C 32.671875 -9.59375 32.882812 -11.707031 32.882812 -14.074219 L 32.882812 -20.710938 C 32.882812 -23.078125 32.671875 -25.191406 32.25 -26.964844 Z M 9.59375 -6.464844 L 9.59375 -28.320312 C 9.59375 -28.488281 9.636719 -28.570312 9.679688 -28.570312 L 21.386719 -28.570312 C 22.359375 -28.570312 23.203125 -28.445312 23.878906 -28.191406 C 24.558594 -27.9375 25.0625 -27.601562 25.445312 -27.050781 C 25.867188 -26.5 26.164062 -25.78125 26.332031 -24.894531 C 26.5 -23.921875 26.628906 -22.738281 26.628906 -21.34375 L 26.628906 -13.441406 C 26.628906 -12.046875 26.5 -10.863281 26.332031 -9.933594 C 26.164062 -9.003906 25.867188 -8.285156 25.445312 -7.734375 C 25.0625 -7.226562 24.558594 -6.847656 23.878906 -6.59375 C 23.203125 -6.339844 22.359375 -6.253906 21.386719 -6.253906 L 9.636719 -6.253906 C 9.636719 -6.253906 9.59375 -6.296875 9.59375 -6.464844 Z M 9.59375 -6.464844 "/></g></g></g><g fill="#f10065" fill-opacity="1"><g transform="translate(87.51415, 238.912207)"><g><path d="M 4.425781 -4.96875 L 4.425781 -6.222656 L 0.710938 -6.222656 L 0.710938 0 L 2.054688 0 L 2.054688 -2.382812 L 4.195312 -2.382812 L 4.195312 -3.601562 L 2.054688 -3.601562 L 2.054688 -4.96875 Z M 4.425781 -4.96875 "/></g></g></g><g fill="#f10065" fill-opacity="1"><g transform="translate(93.611655, 238.912207)"><g><path d="M 3.664062 0.140625 C 5.554688 0.140625 6.96875 -1.253906 6.96875 -3.109375 C 6.96875 -4.960938 5.554688 -6.355469 3.664062 -6.355469 C 1.761719 -6.355469 0.335938 -4.953125 0.335938 -3.109375 C 0.335938 -1.261719 1.761719 0.140625 3.664062 0.140625 Z M 3.664062 -1.128906 C 2.550781 -1.128906 1.707031 -1.992188 1.707031 -3.109375 C 1.707031 -4.230469 2.550781 -5.085938 3.664062 -5.085938 C 4.773438 -5.085938 5.601562 -4.238281 5.601562 -3.109375 C 5.601562 -1.980469 4.773438 -1.128906 3.664062 -1.128906 Z M 3.664062 -1.128906 "/></g></g></g><g fill="#f10065" fill-opacity="1"><g transform="translate(102.268731, 238.912207)"><g><path d="M 4.132812 0 L 5.636719 0 L 4.257812 -2.347656 C 4.953125 -2.683594 5.394531 -3.34375 5.394531 -4.160156 C 5.394531 -5.359375 4.460938 -6.222656 3.21875 -6.222656 L 0.710938 -6.222656 L 0.710938 0 L 2.054688 0 L 2.054688 -2.117188 L 2.914062 -2.117188 Z M 2.054688 -4.976562 L 3.128906 -4.976562 C 3.699219 -4.976562 4.027344 -4.632812 4.027344 -4.167969 C 4.027344 -3.699219 3.699219 -3.359375 3.128906 -3.359375 L 2.054688 -3.359375 Z M 2.054688 -4.976562 "/></g></g></g><g fill="#f10065" fill-opacity="1"><g transform="translate(109.486051, 238.912207)"><g/></g></g><g fill="#f10065" fill-opacity="1"><g transform="translate(112.952886, 238.912207)"><g><path d="M 3.566406 0.140625 C 5.101562 0.140625 6.3125 -0.890625 6.597656 -2.425781 L 5.234375 -2.425781 C 5.011719 -1.644531 4.382812 -1.148438 3.566406 -1.148438 C 2.507812 -1.148438 1.714844 -1.980469 1.714844 -3.101562 C 1.714844 -4.222656 2.507812 -5.066406 3.566406 -5.066406 C 4.347656 -5.066406 4.96875 -4.605469 5.226562 -3.875 L 6.570312 -3.875 C 6.285156 -5.351562 5.074219 -6.355469 3.566406 -6.355469 C 1.734375 -6.355469 0.347656 -4.953125 0.347656 -3.101562 C 0.347656 -1.261719 1.734375 0.140625 3.566406 0.140625 Z M 3.566406 0.140625 "/></g></g></g><g fill="#f10065" fill-opacity="1"><g transform="translate(121.147817, 238.912207)"><g><path d="M 3.664062 0.140625 C 5.554688 0.140625 6.96875 -1.253906 6.96875 -3.109375 C 6.96875 -4.960938 5.554688 -6.355469 3.664062 -6.355469 C 1.761719 -6.355469 0.335938 -4.953125 0.335938 -3.109375 C 0.335938 -1.261719 1.761719 0.140625 3.664062 0.140625 Z M 3.664062 -1.128906 C 2.550781 -1.128906 1.707031 -1.992188 1.707031 -3.109375 C 1.707031 -4.230469 2.550781 -5.085938 3.664062 -5.085938 C 4.773438 -5.085938 5.601562 -4.238281 5.601562 -3.109375 C 5.601562 -1.980469 4.773438 -1.128906 3.664062 -1.128906 Z M 3.664062 -1.128906 "/></g></g></g><g fill="#f10065" fill-opacity="1"><g transform="translate(129.804892, 238.912207)"><g><path d="M 4.648438 -6.222656 L 4.648438 -2.425781 L 1.921875 -6.222656 L 0.710938 -6.222656 L 0.710938 0 L 2.027344 0 L 2.027344 -3.882812 L 4.84375 0 L 5.972656 0 L 5.972656 -6.222656 Z M 4.648438 -6.222656 "/></g></g></g><g fill="#f10065" fill-opacity="1"><g transform="translate(137.830966, 238.912207)"><g><path d="M 4.996094 -6.222656 L 0.1875 -6.222656 L 0.1875 -4.96875 L 1.921875 -4.96875 L 1.921875 0 L 3.261719 0 L 3.261719 -4.96875 L 4.996094 -4.96875 Z M 4.996094 -6.222656 "/></g></g></g><g fill="#f10065" fill-opacity="1"><g transform="translate(144.363951, 238.912207)"><g><path d="M 4.132812 0 L 5.636719 0 L 4.257812 -2.347656 C 4.953125 -2.683594 5.394531 -3.34375 5.394531 -4.160156 C 5.394531 -5.359375 4.460938 -6.222656 3.21875 -6.222656 L 0.710938 -6.222656 L 0.710938 0 L 2.054688 0 L 2.054688 -2.117188 L 2.914062 -2.117188 Z M 2.054688 -4.976562 L 3.128906 -4.976562 C 3.699219 -4.976562 4.027344 -4.632812 4.027344 -4.167969 C 4.027344 -3.699219 3.699219 -3.359375 3.128906 -3.359375 L 2.054688 -3.359375 Z M 2.054688 -4.976562 "/></g></g></g><g fill="#f10065" fill-opacity="1"><g transform="translate(151.581273, 238.912207)"><g><path d="M 4.835938 0 L 6.300781 0 L 3.785156 -6.222656 L 2.515625 -6.222656 L 0.0703125 0 L 1.503906 0 L 1.929688 -1.171875 L 4.398438 -1.171875 Z M 3.164062 -4.578125 L 3.980469 -2.347656 L 2.347656 -2.347656 Z M 3.164062 -4.578125 "/></g></g></g><g fill="#f10065" fill-opacity="1"><g transform="translate(159.30517, 238.912207)"><g><path d="M 3.566406 0.140625 C 5.101562 0.140625 6.3125 -0.890625 6.597656 -2.425781 L 5.234375 -2.425781 C 5.011719 -1.644531 4.382812 -1.148438 3.566406 -1.148438 C 2.507812 -1.148438 1.714844 -1.980469 1.714844 -3.101562 C 1.714844 -4.222656 2.507812 -5.066406 3.566406 -5.066406 C 4.347656 -5.066406 4.96875 -4.605469 5.226562 -3.875 L 6.570312 -3.875 C 6.285156 -5.351562 5.074219 -6.355469 3.566406 -6.355469 C 1.734375 -6.355469 0.347656 -4.953125 0.347656 -3.101562 C 0.347656 -1.261719 1.734375 0.140625 3.566406 0.140625 Z M 3.566406 0.140625 "/></g></g></g><g fill="#f10065" fill-opacity="1"><g transform="translate(167.500102, 238.912207)"><g><path d="M 4.996094 -6.222656 L 0.1875 -6.222656 L 0.1875 -4.96875 L 1.921875 -4.96875 L 1.921875 0 L 3.261719 0 L 3.261719 -4.96875 L 4.996094 -4.96875 Z M 4.996094 -6.222656 "/></g></g></g><g fill="#f10065" fill-opacity="1"><g transform="translate(174.033087, 238.912207)"><g><path d="M 3.664062 0.140625 C 5.554688 0.140625 6.96875 -1.253906 6.96875 -3.109375 C 6.96875 -4.960938 5.554688 -6.355469 3.664062 -6.355469 C 1.761719 -6.355469 0.335938 -4.953125 0.335938 -3.109375 C 0.335938 -1.261719 1.761719 0.140625 3.664062 0.140625 Z M 3.664062 -1.128906 C 2.550781 -1.128906 1.707031 -1.992188 1.707031 -3.109375 C 1.707031 -4.230469 2.550781 -5.085938 3.664062 -5.085938 C 4.773438 -5.085938 5.601562 -4.238281 5.601562 -3.109375 C 5.601562 -1.980469 4.773438 -1.128906 3.664062 -1.128906 Z M 3.664062 -1.128906 "/></g></g></g><g fill="#f10065" fill-opacity="1"><g transform="translate(182.690162, 238.912207)"><g><path d="M 4.132812 0 L 5.636719 0 L 4.257812 -2.347656 C 4.953125 -2.683594 5.394531 -3.34375 5.394531 -4.160156 C 5.394531 -5.359375 4.460938 -6.222656 3.21875 -6.222656 L 0.710938 -6.222656 L 0.710938 0 L 2.054688 0 L 2.054688 -2.117188 L 2.914062 -2.117188 Z M 2.054688 -4.976562 L 3.128906 -4.976562 C 3.699219 -4.976562 4.027344 -4.632812 4.027344 -4.167969 C 4.027344 -3.699219 3.699219 -3.359375 3.128906 -3.359375 L 2.054688 -3.359375 Z M 2.054688 -4.976562 "/></g></g></g><g fill="#f10065" fill-opacity="1"><g transform="translate(189.90748, 238.912207)"><g><path d="M 2.773438 0.125 C 4.0625 0.125 5.128906 -0.523438 5.128906 -1.867188 C 5.128906 -3.261719 3.9375 -3.554688 2.996094 -3.796875 C 2.328125 -3.957031 1.796875 -4.089844 1.796875 -4.523438 C 1.796875 -4.933594 2.230469 -5.121094 2.667969 -5.121094 C 3.171875 -5.121094 3.617188 -4.871094 3.617188 -4.328125 L 4.941406 -4.328125 C 4.941406 -5.574219 4.132812 -6.339844 2.703125 -6.339844 C 1.324219 -6.339844 0.445312 -5.664062 0.445312 -4.472656 C 0.445312 -3.128906 1.582031 -2.851562 2.523438 -2.621094 C 3.199219 -2.472656 3.769531 -2.335938 3.769531 -1.847656 C 3.769531 -1.386719 3.269531 -1.121094 2.765625 -1.121094 C 2.214844 -1.121094 1.714844 -1.414062 1.714844 -2.007812 L 0.355469 -2.007812 C 0.355469 -0.675781 1.34375 0.125 2.773438 0.125 Z M 2.773438 0.125 "/></g></g></g></svg>