<svg xmlns="http://www.w3.org/2000/svg" xmlns:xlink="http://www.w3.org/1999/xlink" width="500" zoomAndPan="magnify" viewBox="0 0 375 374.999991" height="500" preserveAspectRatio="xMidYMid meet" version="1.0"><defs><g/><clipPath id="id1"><path d="M 58.925781 12.605469 L 316.175781 12.605469 L 316.175781 269.855469 L 58.925781 269.855469 Z M 58.925781 12.605469 " clip-rule="nonzero"/></clipPath><clipPath id="id2"><path d="M 117.613281 50.128906 L 278.113281 50.128906 L 278.113281 232.378906 L 117.613281 232.378906 Z M 117.613281 50.128906 " clip-rule="nonzero"/></clipPath><clipPath id="id3"><path d="M 117.613281 50.128906 L 153 50.128906 L 153 92 L 117.613281 92 Z M 117.613281 50.128906 " clip-rule="nonzero"/></clipPath></defs><g fill="#d9d9d9" fill-opacity="1"><g transform="translate(75.442992, 328.327485)"><g><path d="M 40.203125 -29.632812 L 40.203125 -32.546875 C 40.203125 -35.933594 39.527344 -38.539062 38.171875 -40.257812 C 36.820312 -42.027344 34.527344 -42.914062 31.351562 -42.914062 L 8.332031 -42.914062 L 8.332031 -42.859375 C 6.820312 -42.757812 5.519531 -41.921875 4.738281 -40.671875 C 4.53125 -40.257812 4.324219 -39.789062 4.21875 -39.371094 L 4.167969 -3.800781 C 4.269531 -3.230469 4.480469 -2.65625 4.738281 -2.1875 C 5.574219 -0.78125 7.082031 0.0507812 8.695312 0.0507812 L 32.132812 0.0507812 C 33.695312 0.0507812 34.996094 -0.207031 36.039062 -0.730469 C 37.132812 -1.25 38.015625 -1.980469 38.640625 -2.96875 C 39.320312 -3.90625 39.734375 -5.050781 40.046875 -6.40625 C 40.308594 -7.707031 40.464844 -9.21875 40.464844 -10.832031 L 40.464844 -14.320312 C 40.464844 -17.757812 39.476562 -20.363281 37.601562 -22.082031 C 39.371094 -23.851562 40.203125 -26.402344 40.203125 -29.632812 Z M 11.820312 -7.96875 L 11.820312 -34.890625 C 11.820312 -35.101562 11.875 -35.203125 11.925781 -35.203125 L 29.996094 -35.203125 C 30.988281 -35.203125 31.714844 -34.945312 32.132812 -34.476562 C 32.546875 -34.007812 32.757812 -33.171875 32.757812 -32.078125 L 32.757812 -28.488281 C 32.757812 -27.496094 32.546875 -26.714844 32.078125 -26.195312 C 31.664062 -25.726562 30.777344 -25.464844 29.425781 -25.464844 L 19.320312 -25.464844 C 18.382812 -25.464844 17.601562 -24.683594 17.601562 -23.746094 L 17.601562 -19.476562 C 17.601562 -18.488281 18.382812 -17.757812 19.320312 -17.757812 L 29.425781 -17.757812 C 30.777344 -17.757812 31.664062 -17.445312 32.132812 -16.925781 C 32.546875 -16.40625 32.808594 -15.570312 32.808594 -14.425781 L 32.808594 -10.882812 C 32.808594 -9.6875 32.601562 -8.851562 32.183594 -8.382812 C 31.765625 -7.914062 31.039062 -7.707031 29.996094 -7.707031 L 11.875 -7.707031 C 11.875 -7.707031 11.820312 -7.757812 11.820312 -7.96875 Z M 11.820312 -7.96875 "/></g></g></g><g fill="#d9d9d9" fill-opacity="1"><g transform="translate(116.162151, 328.327485)"><g><path d="M 39.632812 -39.109375 C 38.589844 -40.414062 37.234375 -41.402344 35.570312 -42.027344 C 33.953125 -42.601562 31.976562 -42.914062 29.683594 -42.914062 L 16.976562 -42.914062 C 14.6875 -42.914062 12.757812 -42.601562 11.144531 -42.027344 C 9.476562 -41.402344 8.125 -40.414062 7.082031 -39.109375 C 6.09375 -37.808594 5.3125 -36.089844 4.84375 -34.007812 C 4.375 -31.976562 4.167969 -29.527344 4.167969 -26.613281 L 4.167969 -16.300781 C 4.167969 -13.382812 4.375 -10.882812 4.84375 -8.851562 C 5.3125 -6.769531 6.09375 -5.050781 7.082031 -3.75 C 8.125 -2.394531 9.476562 -1.40625 11.144531 -0.832031 C 12.707031 -0.261719 14.6875 0.0507812 16.976562 0.0507812 L 29.683594 0.0507812 C 31.976562 0.0507812 33.953125 -0.261719 35.570312 -0.832031 C 37.234375 -1.40625 38.589844 -2.394531 39.632812 -3.699219 C 40.671875 -5.050781 41.402344 -6.769531 41.871094 -8.851562 C 42.289062 -10.882812 42.546875 -13.382812 42.546875 -16.300781 L 42.546875 -26.613281 C 42.546875 -29.476562 42.289062 -31.976562 41.871094 -34.007812 C 41.402344 -36.089844 40.671875 -37.808594 39.632812 -39.109375 Z M 34.789062 -27.496094 L 34.789062 -15.363281 C 34.789062 -13.851562 34.734375 -12.550781 34.527344 -11.507812 C 34.371094 -10.570312 34.058594 -9.738281 33.640625 -9.21875 C 33.277344 -8.644531 32.757812 -8.28125 32.078125 -8.070312 C 31.402344 -7.8125 30.519531 -7.707031 29.425781 -7.707031 L 17.238281 -7.707031 C 16.144531 -7.707031 15.257812 -7.8125 14.582031 -8.070312 C 13.90625 -8.28125 13.382812 -8.644531 13.019531 -9.21875 C 12.601562 -9.738281 12.34375 -10.570312 12.132812 -11.507812 C 11.976562 -12.550781 11.875 -13.851562 11.875 -15.363281 L 11.875 -27.496094 C 11.875 -29.007812 11.976562 -30.308594 12.132812 -31.351562 C 12.34375 -32.339844 12.601562 -33.121094 13.019531 -33.695312 C 13.382812 -34.214844 13.90625 -34.578125 14.582031 -34.839844 C 15.257812 -35.046875 16.144531 -35.203125 17.238281 -35.203125 L 29.425781 -35.203125 C 30.519531 -35.203125 31.402344 -35.046875 32.078125 -34.839844 C 32.757812 -34.578125 33.277344 -34.214844 33.640625 -33.695312 C 34.058594 -33.121094 34.371094 -32.339844 34.527344 -31.351562 C 34.734375 -30.308594 34.789062 -29.007812 34.789062 -27.496094 Z M 34.789062 -27.496094 "/></g></g></g><g fill="#d9d9d9" fill-opacity="1"><g transform="translate(158.964194, 328.327485)"><g><path d="M 39.632812 -39.109375 C 38.589844 -40.414062 37.234375 -41.402344 35.570312 -42.027344 C 33.953125 -42.601562 31.976562 -42.914062 29.683594 -42.914062 L 16.976562 -42.914062 C 14.6875 -42.914062 12.757812 -42.601562 11.144531 -42.027344 C 9.476562 -41.402344 8.125 -40.414062 7.082031 -39.109375 C 6.09375 -37.808594 5.3125 -36.089844 4.84375 -34.007812 C 4.375 -31.976562 4.167969 -29.527344 4.167969 -26.613281 L 4.167969 -16.300781 C 4.167969 -13.382812 4.375 -10.882812 4.84375 -8.851562 C 5.3125 -6.769531 6.09375 -5.050781 7.082031 -3.75 C 8.125 -2.394531 9.476562 -1.40625 11.144531 -0.832031 C 12.707031 -0.261719 14.6875 0.0507812 16.976562 0.0507812 L 29.683594 0.0507812 C 31.976562 0.0507812 33.953125 -0.261719 35.570312 -0.832031 C 37.234375 -1.40625 38.589844 -2.394531 39.632812 -3.699219 C 40.671875 -5.050781 41.402344 -6.769531 41.871094 -8.851562 C 42.289062 -10.882812 42.546875 -13.382812 42.546875 -16.300781 L 42.546875 -26.613281 C 42.546875 -29.476562 42.289062 -31.976562 41.871094 -34.007812 C 41.402344 -36.089844 40.671875 -37.808594 39.632812 -39.109375 Z M 34.789062 -27.496094 L 34.789062 -15.363281 C 34.789062 -13.851562 34.734375 -12.550781 34.527344 -11.507812 C 34.371094 -10.570312 34.058594 -9.738281 33.640625 -9.21875 C 33.277344 -8.644531 32.757812 -8.28125 32.078125 -8.070312 C 31.402344 -7.8125 30.519531 -7.707031 29.425781 -7.707031 L 17.238281 -7.707031 C 16.144531 -7.707031 15.257812 -7.8125 14.582031 -8.070312 C 13.90625 -8.28125 13.382812 -8.644531 13.019531 -9.21875 C 12.601562 -9.738281 12.34375 -10.570312 12.132812 -11.507812 C 11.976562 -12.550781 11.875 -13.851562 11.875 -15.363281 L 11.875 -27.496094 C 11.875 -29.007812 11.976562 -30.308594 12.132812 -31.351562 C 12.34375 -32.339844 12.601562 -33.121094 13.019531 -33.695312 C 13.382812 -34.214844 13.90625 -34.578125 14.582031 -34.839844 C 15.257812 -35.046875 16.144531 -35.203125 17.238281 -35.203125 L 29.425781 -35.203125 C 30.519531 -35.203125 31.402344 -35.046875 32.078125 -34.839844 C 32.757812 -34.578125 33.277344 -34.214844 33.640625 -33.695312 C 34.058594 -33.121094 34.371094 -32.339844 34.527344 -31.351562 C 34.734375 -30.308594 34.789062 -29.007812 34.789062 -27.496094 Z M 34.789062 -27.496094 "/></g></g></g><g fill="#d9d9d9" fill-opacity="1"><g transform="translate(201.766242, 328.327485)"><g><path d="M 29.113281 -17.863281 C 28.070312 -19.582031 27.027344 -20.988281 25.988281 -21.976562 C 26.300781 -22.394531 26.613281 -22.808594 26.976562 -23.332031 C 27.394531 -24.007812 27.863281 -24.789062 28.382812 -25.675781 L 36.976562 -40.777344 C 37.132812 -41.140625 37.183594 -41.558594 37.132812 -42.027344 C 36.976562 -42.601562 36.558594 -42.914062 35.933594 -42.914062 L 30.777344 -42.914062 C 30.207031 -42.914062 29.839844 -42.808594 29.632812 -42.601562 C 29.425781 -42.445312 29.214844 -42.234375 29.058594 -41.871094 L 21.195312 -27.964844 C 20.882812 -27.445312 20.570312 -27.027344 20.308594 -26.664062 C 20.050781 -26.351562 19.738281 -26.089844 19.476562 -25.933594 C 19.164062 -25.777344 18.800781 -25.675781 18.382812 -25.621094 C 17.96875 -25.570312 17.394531 -25.519531 16.71875 -25.519531 L 11.925781 -25.519531 L 11.925781 -41.089844 C 11.925781 -42.757812 10.882812 -42.914062 10.46875 -42.914062 L 5.675781 -42.914062 C 5.261719 -42.914062 4.167969 -42.757812 4.167969 -41.089844 L 4.167969 -1.769531 C 4.167969 -0.15625 5.261719 0.0507812 5.675781 0.0507812 L 10.46875 0.0507812 C 10.882812 0.0507812 11.925781 -0.15625 11.925781 -1.769531 L 11.925781 -17.8125 L 17.1875 -17.8125 C 18.4375 -17.8125 19.371094 -17.65625 19.996094 -17.289062 C 20.570312 -16.976562 21.144531 -16.300781 21.714844 -15.257812 L 29.839844 -0.988281 C 29.996094 -0.675781 30.207031 -0.417969 30.414062 -0.261719 C 30.621094 -0.0507812 30.988281 0.0507812 31.507812 0.0507812 L 37.132812 0.0507812 C 37.859375 0.0507812 38.277344 -0.363281 38.328125 -1.042969 C 38.382812 -1.5625 38.328125 -1.980469 38.121094 -2.238281 Z M 29.113281 -17.863281 "/></g></g></g><g fill="#d9d9d9" fill-opacity="1"><g transform="translate(240.402535, 328.327485)"><g><path d="M 9.582031 -51.402344 L 6.199219 -51.402344 C 5.105469 -51.402344 4.167969 -50.515625 4.167969 -49.371094 L 4.167969 -45.984375 C 4.167969 -44.839844 5.105469 -43.953125 6.199219 -43.953125 L 7.707031 -43.953125 L 7.707031 -40.257812 C 7.707031 -39.578125 8.226562 -39.058594 8.90625 -39.058594 C 9.476562 -39.058594 9.945312 -39.421875 10.050781 -39.945312 L 11.507812 -45.253906 C 11.5625 -45.464844 11.613281 -45.722656 11.613281 -45.984375 L 11.613281 -49.371094 C 11.613281 -50.515625 10.726562 -51.402344 9.582031 -51.402344 Z M 9.582031 -51.402344 "/></g></g></g><g fill="#d9d9d9" fill-opacity="1"><g transform="translate(252.273877, 328.327485)"><g><path d="M 39.734375 -33.226562 C 39.214844 -35.414062 38.328125 -37.234375 37.234375 -38.695312 C 36.089844 -40.101562 34.578125 -41.195312 32.808594 -41.871094 C 31.039062 -42.546875 28.957031 -42.914062 26.507812 -42.914062 L 8.332031 -42.914062 L 8.332031 -42.859375 C 6.820312 -42.757812 5.519531 -41.921875 4.738281 -40.671875 C 4.53125 -40.257812 4.324219 -39.789062 4.21875 -39.371094 L 4.167969 -3.800781 C 4.269531 -3.230469 4.480469 -2.65625 4.738281 -2.1875 C 5.574219 -0.78125 7.082031 0.0507812 8.695312 0.0507812 L 26.507812 0.0507812 C 28.957031 0.0507812 31.089844 -0.3125 32.808594 -0.988281 C 34.578125 -1.667969 36.089844 -2.761719 37.234375 -4.21875 C 38.328125 -5.625 39.214844 -7.445312 39.734375 -9.632812 C 40.257812 -11.820312 40.515625 -14.425781 40.515625 -17.34375 L 40.515625 -25.519531 C 40.515625 -28.433594 40.257812 -31.039062 39.734375 -33.226562 Z M 11.820312 -7.96875 L 11.820312 -34.890625 C 11.820312 -35.101562 11.875 -35.203125 11.925781 -35.203125 L 26.351562 -35.203125 C 27.550781 -35.203125 28.589844 -35.046875 29.425781 -34.734375 C 30.257812 -34.421875 30.882812 -34.007812 31.351562 -33.328125 C 31.871094 -32.652344 32.234375 -31.765625 32.445312 -30.675781 C 32.652344 -29.476562 32.808594 -28.019531 32.808594 -26.300781 L 32.808594 -16.5625 C 32.808594 -14.84375 32.652344 -13.382812 32.445312 -12.238281 C 32.234375 -11.09375 31.871094 -10.207031 31.351562 -9.53125 C 30.882812 -8.90625 30.257812 -8.4375 29.425781 -8.125 C 28.589844 -7.8125 27.550781 -7.707031 26.351562 -7.707031 L 11.875 -7.707031 C 11.875 -7.707031 11.820312 -7.757812 11.820312 -7.96875 Z M 11.820312 -7.96875 "/></g></g></g><g fill="#f10065" fill-opacity="1"><g transform="translate(92.058991, 359.000151)"><g><path d="M 7.832031 -8.792969 L 7.832031 -11.007812 L 1.257812 -11.007812 L 1.257812 0 L 3.632812 0 L 3.632812 -4.214844 L 7.421875 -4.214844 L 7.421875 -6.371094 L 3.632812 -6.371094 L 3.632812 -8.792969 Z M 7.832031 -8.792969 "/></g></g></g><g fill="#f10065" fill-opacity="1"><g transform="translate(102.846722, 359.000151)"><g><path d="M 6.480469 0.25 C 9.828125 0.25 12.328125 -2.21875 12.328125 -5.503906 C 12.328125 -8.777344 9.828125 -11.246094 6.480469 -11.246094 C 3.113281 -11.246094 0.597656 -8.757812 0.597656 -5.503906 C 0.597656 -2.234375 3.113281 0.25 6.480469 0.25 Z M 6.480469 -1.996094 C 4.511719 -1.996094 3.019531 -3.523438 3.019531 -5.503906 C 3.019531 -7.484375 4.511719 -8.996094 6.480469 -8.996094 C 8.445312 -8.996094 9.90625 -7.5 9.90625 -5.503906 C 9.90625 -3.507812 8.445312 -1.996094 6.480469 -1.996094 Z M 6.480469 -1.996094 "/></g></g></g><g fill="#f10065" fill-opacity="1"><g transform="translate(118.162956, 359.000151)"><g><path d="M 7.3125 0 L 9.96875 0 L 7.53125 -4.152344 C 8.757812 -4.75 9.546875 -5.914062 9.546875 -7.359375 C 9.546875 -9.484375 7.894531 -11.007812 5.691406 -11.007812 L 1.257812 -11.007812 L 1.257812 0 L 3.632812 0 L 3.632812 -3.742188 L 5.160156 -3.742188 Z M 3.632812 -8.808594 L 5.535156 -8.808594 C 6.542969 -8.808594 7.125 -8.195312 7.125 -7.375 C 7.125 -6.542969 6.542969 -5.945312 5.535156 -5.945312 L 3.632812 -5.945312 Z M 3.632812 -8.808594 "/></g></g></g><g fill="#f10065" fill-opacity="1"><g transform="translate(137.06535, 359.000151)"><g><path d="M 6.304688 0.25 C 9.027344 0.25 11.164062 -1.574219 11.667969 -4.292969 L 9.261719 -4.292969 C 8.871094 -2.910156 7.753906 -2.027344 6.304688 -2.027344 C 4.433594 -2.027344 3.035156 -3.507812 3.035156 -5.488281 C 3.035156 -7.46875 4.433594 -8.964844 6.304688 -8.964844 C 7.691406 -8.964844 8.792969 -8.144531 9.246094 -6.855469 L 11.621094 -6.855469 C 11.117188 -9.46875 8.980469 -11.246094 6.304688 -11.246094 C 3.066406 -11.246094 0.613281 -8.757812 0.613281 -5.488281 C 0.613281 -2.234375 3.066406 0.25 6.304688 0.25 Z M 6.304688 0.25 "/></g></g></g><g fill="#f10065" fill-opacity="1"><g transform="translate(151.56393, 359.000151)"><g><path d="M 6.480469 0.25 C 9.828125 0.25 12.328125 -2.21875 12.328125 -5.503906 C 12.328125 -8.777344 9.828125 -11.246094 6.480469 -11.246094 C 3.113281 -11.246094 0.597656 -8.757812 0.597656 -5.503906 C 0.597656 -2.234375 3.113281 0.25 6.480469 0.25 Z M 6.480469 -1.996094 C 4.511719 -1.996094 3.019531 -3.523438 3.019531 -5.503906 C 3.019531 -7.484375 4.511719 -8.996094 6.480469 -8.996094 C 8.445312 -8.996094 9.90625 -7.5 9.90625 -5.503906 C 9.90625 -3.507812 8.445312 -1.996094 6.480469 -1.996094 Z M 6.480469 -1.996094 "/></g></g></g><g fill="#f10065" fill-opacity="1"><g transform="translate(166.880163, 359.000151)"><g><path d="M 8.226562 -11.007812 L 8.226562 -4.292969 L 3.398438 -11.007812 L 1.257812 -11.007812 L 1.257812 0 L 3.585938 0 L 3.585938 -6.871094 L 8.570312 0 L 10.566406 0 L 10.566406 -11.007812 Z M 8.226562 -11.007812 "/></g></g></g><g fill="#f10065" fill-opacity="1"><g transform="translate(181.07999, 359.000151)"><g><path d="M 8.839844 -11.007812 L 0.332031 -11.007812 L 0.332031 -8.792969 L 3.398438 -8.792969 L 3.398438 0 L 5.773438 0 L 5.773438 -8.792969 L 8.839844 -8.792969 Z M 8.839844 -11.007812 "/></g></g></g><g fill="#f10065" fill-opacity="1"><g transform="translate(192.638191, 359.000151)"><g><path d="M 7.3125 0 L 9.96875 0 L 7.53125 -4.152344 C 8.757812 -4.75 9.546875 -5.914062 9.546875 -7.359375 C 9.546875 -9.484375 7.894531 -11.007812 5.691406 -11.007812 L 1.257812 -11.007812 L 1.257812 0 L 3.632812 0 L 3.632812 -3.742188 L 5.160156 -3.742188 Z M 3.632812 -8.808594 L 5.535156 -8.808594 C 6.542969 -8.808594 7.125 -8.195312 7.125 -7.375 C 7.125 -6.542969 6.542969 -5.945312 5.535156 -5.945312 L 3.632812 -5.945312 Z M 3.632812 -8.808594 "/></g></g></g><g fill="#f10065" fill-opacity="1"><g transform="translate(205.407144, 359.000151)"><g><path d="M 8.554688 0 L 11.148438 0 L 6.699219 -11.007812 L 4.449219 -11.007812 L 0.125 0 L 2.65625 0 L 3.414062 -2.074219 L 7.785156 -2.074219 Z M 5.597656 -8.097656 L 7.046875 -4.152344 L 4.152344 -4.152344 Z M 5.597656 -8.097656 "/></g></g></g><g fill="#f10065" fill-opacity="1"><g transform="translate(219.072357, 359.000151)"><g><path d="M 6.304688 0.25 C 9.027344 0.25 11.164062 -1.574219 11.667969 -4.292969 L 9.261719 -4.292969 C 8.871094 -2.910156 7.753906 -2.027344 6.304688 -2.027344 C 4.433594 -2.027344 3.035156 -3.507812 3.035156 -5.488281 C 3.035156 -7.46875 4.433594 -8.964844 6.304688 -8.964844 C 7.691406 -8.964844 8.792969 -8.144531 9.246094 -6.855469 L 11.621094 -6.855469 C 11.117188 -9.46875 8.980469 -11.246094 6.304688 -11.246094 C 3.066406 -11.246094 0.613281 -8.757812 0.613281 -5.488281 C 0.613281 -2.234375 3.066406 0.25 6.304688 0.25 Z M 6.304688 0.25 "/></g></g></g><g fill="#f10065" fill-opacity="1"><g transform="translate(233.570937, 359.000151)"><g><path d="M 8.839844 -11.007812 L 0.332031 -11.007812 L 0.332031 -8.792969 L 3.398438 -8.792969 L 3.398438 0 L 5.773438 0 L 5.773438 -8.792969 L 8.839844 -8.792969 Z M 8.839844 -11.007812 "/></g></g></g><g fill="#f10065" fill-opacity="1"><g transform="translate(245.129138, 359.000151)"><g><path d="M 6.480469 0.25 C 9.828125 0.25 12.328125 -2.21875 12.328125 -5.503906 C 12.328125 -8.777344 9.828125 -11.246094 6.480469 -11.246094 C 3.113281 -11.246094 0.597656 -8.757812 0.597656 -5.503906 C 0.597656 -2.234375 3.113281 0.25 6.480469 0.25 Z M 6.480469 -1.996094 C 4.511719 -1.996094 3.019531 -3.523438 3.019531 -5.503906 C 3.019531 -7.484375 4.511719 -8.996094 6.480469 -8.996094 C 8.445312 -8.996094 9.90625 -7.5 9.90625 -5.503906 C 9.90625 -3.507812 8.445312 -1.996094 6.480469 -1.996094 Z M 6.480469 -1.996094 "/></g></g></g><g fill="#f10065" fill-opacity="1"><g transform="translate(260.445371, 359.000151)"><g><path d="M 7.3125 0 L 9.96875 0 L 7.53125 -4.152344 C 8.757812 -4.75 9.546875 -5.914062 9.546875 -7.359375 C 9.546875 -9.484375 7.894531 -11.007812 5.691406 -11.007812 L 1.257812 -11.007812 L 1.257812 0 L 3.632812 0 L 3.632812 -3.742188 L 5.160156 -3.742188 Z M 3.632812 -8.808594 L 5.535156 -8.808594 C 6.542969 -8.808594 7.125 -8.195312 7.125 -7.375 C 7.125 -6.542969 6.542969 -5.945312 5.535156 -5.945312 L 3.632812 -5.945312 Z M 3.632812 -8.808594 "/></g></g></g><g fill="#f10065" fill-opacity="1"><g transform="translate(273.214334, 359.000151)"><g><path d="M 4.90625 0.21875 C 7.1875 0.21875 9.074219 -0.929688 9.074219 -3.300781 C 9.074219 -5.773438 6.96875 -6.289062 5.300781 -6.714844 C 4.121094 -7 3.175781 -7.234375 3.175781 -8.003906 C 3.175781 -8.726562 3.949219 -9.058594 4.71875 -9.058594 C 5.613281 -9.058594 6.402344 -8.617188 6.402344 -7.660156 L 8.742188 -7.660156 C 8.742188 -9.859375 7.3125 -11.214844 4.78125 -11.214844 C 2.34375 -11.214844 0.785156 -10.019531 0.785156 -7.910156 C 0.785156 -5.535156 2.800781 -5.046875 4.464844 -4.640625 C 5.660156 -4.371094 6.667969 -4.136719 6.667969 -3.269531 C 6.667969 -2.453125 5.789062 -1.980469 4.890625 -1.980469 C 3.914062 -1.980469 3.035156 -2.5 3.035156 -3.554688 L 0.628906 -3.554688 C 0.628906 -1.195312 2.375 0.21875 4.90625 0.21875 Z M 4.90625 0.21875 "/></g></g></g><g clip-path="url(#id1)"><path fill="#281c4b" d="M 187.550781 12.605469 C 116.511719 12.605469 58.925781 70.191406 58.925781 141.230469 C 58.925781 212.269531 116.511719 269.855469 187.550781 269.855469 C 258.585938 269.855469 316.175781 212.269531 316.175781 141.230469 C 316.175781 70.191406 258.585938 12.605469 187.550781 12.605469 " fill-opacity="1" fill-rule="nonzero"/></g><g clip-path="url(#id2)"><path fill="#f10065" d="M 270.945312 152.289062 C 267.339844 146.289062 262.734375 141.390625 257.335938 137.761719 C 261.070312 134.851562 264.1875 131.472656 266.648438 127.644531 C 270.785156 121.199219 272.886719 113.8125 272.886719 105.6875 C 272.886719 70.976562 248.085938 50.25 206.546875 50.25 L 166.941406 50.25 L 166.941406 91.820312 L 184.125 91.820312 L 184.125 91.945312 L 209.527344 91.945312 C 225.988281 91.945312 227.351562 99.355469 227.351562 104.359375 C 227.351562 107.28125 230.335938 118.222656 209.527344 118.222656 L 200.828125 118.222656 L 200.828125 158.949219 L 213.433594 158.949219 C 224.300781 158.949219 232.566406 163.914062 232.566406 174.382812 C 232.566406 187.96875 216.09375 189.816406 213.433594 189.816406 L 152.199219 189.816406 L 152.199219 106.457031 L 117.605469 106.457031 L 117.605469 232.238281 L 206.546875 232.238281 C 227.554688 232.238281 244.265625 228.253906 256.210938 220.390625 C 270.738281 210.835938 278.101562 195.921875 278.101562 176.078125 C 278.101562 168.65625 275.425781 159.765625 270.945312 152.289062 " fill-opacity="1" fill-rule="nonzero"/></g><g clip-path="url(#id3)"><path fill="#ed5b2d" d="M 152.199219 50.25 L 152.199219 91.820312 L 117.605469 91.820312 L 117.605469 50.25 L 152.199219 50.25 " fill-opacity="1" fill-rule="nonzero"/></g></svg>