<svg xmlns="http://www.w3.org/2000/svg" xmlns:xlink="http://www.w3.org/1999/xlink" width="500" zoomAndPan="magnify" viewBox="0 0 375 374.999991" height="500" preserveAspectRatio="xMidYMid meet" version="1.0"><defs><g/></defs><g fill="#d9d9d9" fill-opacity="1"><g transform="translate(65.962263, 201.562123)"><g><path d="M 43.445312 -32.023438 L 43.445312 -35.175781 C 43.445312 -38.832031 42.714844 -41.644531 41.25 -43.503906 C 39.789062 -45.417969 37.3125 -46.375 33.878906 -46.375 L 9.003906 -46.375 L 9.003906 -46.316406 C 7.371094 -46.203125 5.964844 -45.304688 5.121094 -43.953125 C 4.894531 -43.503906 4.671875 -42.996094 4.558594 -42.546875 L 4.503906 -4.109375 C 4.613281 -3.488281 4.839844 -2.871094 5.121094 -2.363281 C 6.023438 -0.84375 7.652344 0.0546875 9.398438 0.0546875 L 34.722656 0.0546875 C 36.410156 0.0546875 37.820312 -0.226562 38.945312 -0.789062 C 40.125 -1.351562 41.082031 -2.136719 41.757812 -3.207031 C 42.488281 -4.222656 42.941406 -5.457031 43.277344 -6.921875 C 43.558594 -8.328125 43.726562 -9.960938 43.726562 -11.707031 L 43.726562 -15.476562 C 43.726562 -19.191406 42.660156 -22.003906 40.632812 -23.863281 C 42.546875 -25.777344 43.445312 -28.53125 43.445312 -32.023438 Z M 12.773438 -8.609375 L 12.773438 -37.707031 C 12.773438 -37.929688 12.832031 -38.042969 12.886719 -38.042969 L 32.417969 -38.042969 C 33.484375 -38.042969 34.273438 -37.761719 34.722656 -37.257812 C 35.175781 -36.75 35.398438 -35.847656 35.398438 -34.667969 L 35.398438 -30.785156 C 35.398438 -29.714844 35.175781 -28.871094 34.667969 -28.308594 C 34.21875 -27.800781 33.261719 -27.519531 31.796875 -27.519531 L 20.878906 -27.519531 C 19.867188 -27.519531 19.023438 -26.675781 19.023438 -25.664062 L 19.023438 -21.046875 C 19.023438 -19.980469 19.867188 -19.191406 20.878906 -19.191406 L 31.796875 -19.191406 C 33.261719 -19.191406 34.21875 -18.851562 34.722656 -18.289062 C 35.175781 -17.726562 35.457031 -16.828125 35.457031 -15.589844 L 35.457031 -11.761719 C 35.457031 -10.46875 35.230469 -9.566406 34.78125 -9.0625 C 34.328125 -8.554688 33.542969 -8.328125 32.417969 -8.328125 L 12.832031 -8.328125 C 12.832031 -8.328125 12.773438 -8.386719 12.773438 -8.609375 Z M 12.773438 -8.609375 "/></g></g></g><g fill="#d9d9d9" fill-opacity="1"><g transform="translate(109.965573, 201.562123)"><g><path d="M 42.828125 -42.265625 C 41.703125 -43.671875 40.238281 -44.742188 38.4375 -45.417969 C 36.695312 -46.035156 34.554688 -46.375 32.078125 -46.375 L 18.347656 -46.375 C 15.871094 -46.375 13.789062 -46.035156 12.042969 -45.417969 C 10.242188 -44.742188 8.78125 -43.671875 7.652344 -42.265625 C 6.585938 -40.859375 5.742188 -39 5.234375 -36.75 C 4.726562 -34.554688 4.503906 -31.910156 4.503906 -28.757812 L 4.503906 -17.613281 C 4.503906 -14.464844 4.726562 -11.761719 5.234375 -9.566406 C 5.742188 -7.316406 6.585938 -5.457031 7.652344 -4.050781 C 8.78125 -2.589844 10.242188 -1.519531 12.042969 -0.902344 C 13.730469 -0.28125 15.871094 0.0546875 18.347656 0.0546875 L 32.078125 0.0546875 C 34.554688 0.0546875 36.695312 -0.28125 38.4375 -0.902344 C 40.238281 -1.519531 41.703125 -2.589844 42.828125 -3.996094 C 43.953125 -5.457031 44.742188 -7.316406 45.246094 -9.566406 C 45.699219 -11.761719 45.980469 -14.464844 45.980469 -17.613281 L 45.980469 -28.757812 C 45.980469 -31.851562 45.699219 -34.554688 45.246094 -36.75 C 44.742188 -39 43.953125 -40.859375 42.828125 -42.265625 Z M 37.59375 -29.714844 L 37.59375 -16.601562 C 37.59375 -14.96875 37.539062 -13.5625 37.3125 -12.4375 C 37.144531 -11.425781 36.804688 -10.523438 36.355469 -9.960938 C 35.960938 -9.34375 35.398438 -8.949219 34.667969 -8.722656 C 33.9375 -8.441406 32.980469 -8.328125 31.796875 -8.328125 L 18.628906 -8.328125 C 17.445312 -8.328125 16.488281 -8.441406 15.757812 -8.722656 C 15.027344 -8.949219 14.464844 -9.34375 14.070312 -9.960938 C 13.621094 -10.523438 13.339844 -11.425781 13.113281 -12.4375 C 12.945312 -13.5625 12.832031 -14.96875 12.832031 -16.601562 L 12.832031 -29.714844 C 12.832031 -31.347656 12.945312 -32.753906 13.113281 -33.878906 C 13.339844 -34.949219 13.621094 -35.792969 14.070312 -36.410156 C 14.464844 -36.976562 15.027344 -37.367188 15.757812 -37.648438 C 16.488281 -37.875 17.445312 -38.042969 18.628906 -38.042969 L 31.796875 -38.042969 C 32.980469 -38.042969 33.9375 -37.875 34.667969 -37.648438 C 35.398438 -37.367188 35.960938 -36.976562 36.355469 -36.410156 C 36.804688 -35.792969 37.144531 -34.949219 37.3125 -33.878906 C 37.539062 -32.753906 37.59375 -31.347656 37.59375 -29.714844 Z M 37.59375 -29.714844 "/></g></g></g><g fill="#d9d9d9" fill-opacity="1"><g transform="translate(156.219758, 201.562123)"><g><path d="M 42.828125 -42.265625 C 41.703125 -43.671875 40.238281 -44.742188 38.4375 -45.417969 C 36.695312 -46.035156 34.554688 -46.375 32.078125 -46.375 L 18.347656 -46.375 C 15.871094 -46.375 13.789062 -46.035156 12.042969 -45.417969 C 10.242188 -44.742188 8.78125 -43.671875 7.652344 -42.265625 C 6.585938 -40.859375 5.742188 -39 5.234375 -36.75 C 4.726562 -34.554688 4.503906 -31.910156 4.503906 -28.757812 L 4.503906 -17.613281 C 4.503906 -14.464844 4.726562 -11.761719 5.234375 -9.566406 C 5.742188 -7.316406 6.585938 -5.457031 7.652344 -4.050781 C 8.78125 -2.589844 10.242188 -1.519531 12.042969 -0.902344 C 13.730469 -0.28125 15.871094 0.0546875 18.347656 0.0546875 L 32.078125 0.0546875 C 34.554688 0.0546875 36.695312 -0.28125 38.4375 -0.902344 C 40.238281 -1.519531 41.703125 -2.589844 42.828125 -3.996094 C 43.953125 -5.457031 44.742188 -7.316406 45.246094 -9.566406 C 45.699219 -11.761719 45.980469 -14.464844 45.980469 -17.613281 L 45.980469 -28.757812 C 45.980469 -31.851562 45.699219 -34.554688 45.246094 -36.75 C 44.742188 -39 43.953125 -40.859375 42.828125 -42.265625 Z M 37.59375 -29.714844 L 37.59375 -16.601562 C 37.59375 -14.96875 37.539062 -13.5625 37.3125 -12.4375 C 37.144531 -11.425781 36.804688 -10.523438 36.355469 -9.960938 C 35.960938 -9.34375 35.398438 -8.949219 34.667969 -8.722656 C 33.9375 -8.441406 32.980469 -8.328125 31.796875 -8.328125 L 18.628906 -8.328125 C 17.445312 -8.328125 16.488281 -8.441406 15.757812 -8.722656 C 15.027344 -8.949219 14.464844 -9.34375 14.070312 -9.960938 C 13.621094 -10.523438 13.339844 -11.425781 13.113281 -12.4375 C 12.945312 -13.5625 12.832031 -14.96875 12.832031 -16.601562 L 12.832031 -29.714844 C 12.832031 -31.347656 12.945312 -32.753906 13.113281 -33.878906 C 13.339844 -34.949219 13.621094 -35.792969 14.070312 -36.410156 C 14.464844 -36.976562 15.027344 -37.367188 15.757812 -37.648438 C 16.488281 -37.875 17.445312 -38.042969 18.628906 -38.042969 L 31.796875 -38.042969 C 32.980469 -38.042969 33.9375 -37.875 34.667969 -37.648438 C 35.398438 -37.367188 35.960938 -36.976562 36.355469 -36.410156 C 36.804688 -35.792969 37.144531 -34.949219 37.3125 -33.878906 C 37.539062 -32.753906 37.59375 -31.347656 37.59375 -29.714844 Z M 37.59375 -29.714844 "/></g></g></g><g fill="#d9d9d9" fill-opacity="1"><g transform="translate(202.473949, 201.562123)"><g><path d="M 31.460938 -19.304688 C 30.332031 -21.160156 29.207031 -22.679688 28.082031 -23.75 C 28.421875 -24.199219 28.757812 -24.648438 29.152344 -25.210938 C 29.601562 -25.945312 30.109375 -26.789062 30.671875 -27.746094 L 39.957031 -44.066406 C 40.125 -44.460938 40.183594 -44.910156 40.125 -45.417969 C 39.957031 -46.035156 39.507812 -46.375 38.832031 -46.375 L 33.261719 -46.375 C 32.640625 -46.375 32.246094 -46.261719 32.023438 -46.035156 C 31.796875 -45.867188 31.570312 -45.640625 31.402344 -45.246094 L 22.90625 -30.222656 C 22.566406 -29.660156 22.230469 -29.207031 21.949219 -28.8125 C 21.667969 -28.476562 21.328125 -28.195312 21.046875 -28.027344 C 20.710938 -27.859375 20.316406 -27.746094 19.867188 -27.6875 C 19.414062 -27.632812 18.796875 -27.578125 18.066406 -27.578125 L 12.886719 -27.578125 L 12.886719 -44.402344 C 12.886719 -46.203125 11.761719 -46.375 11.3125 -46.375 L 6.132812 -46.375 C 5.683594 -46.375 4.503906 -46.203125 4.503906 -44.402344 L 4.503906 -1.914062 C 4.503906 -0.167969 5.683594 0.0546875 6.132812 0.0546875 L 11.3125 0.0546875 C 11.761719 0.0546875 12.886719 -0.167969 12.886719 -1.914062 L 12.886719 -19.246094 L 18.570312 -19.246094 C 19.921875 -19.246094 20.933594 -19.078125 21.609375 -18.683594 C 22.230469 -18.347656 22.847656 -17.613281 23.46875 -16.488281 L 32.246094 -1.070312 C 32.417969 -0.730469 32.640625 -0.449219 32.867188 -0.28125 C 33.089844 -0.0546875 33.484375 0.0546875 34.046875 0.0546875 L 40.125 0.0546875 C 40.914062 0.0546875 41.363281 -0.394531 41.421875 -1.125 C 41.476562 -1.6875 41.421875 -2.136719 41.195312 -2.421875 Z M 31.460938 -19.304688 "/></g></g></g><g fill="#d9d9d9" fill-opacity="1"><g transform="translate(244.226402, 201.562123)"><g><path d="M 10.355469 -55.546875 L 6.695312 -55.546875 C 5.515625 -55.546875 4.503906 -54.589844 4.503906 -53.351562 L 4.503906 -49.695312 C 4.503906 -48.457031 5.515625 -47.5 6.695312 -47.5 L 8.328125 -47.5 L 8.328125 -43.503906 C 8.328125 -42.769531 8.890625 -42.207031 9.625 -42.207031 C 10.242188 -42.207031 10.75 -42.601562 10.863281 -43.164062 L 12.4375 -48.90625 C 12.492188 -49.128906 12.550781 -49.414062 12.550781 -49.695312 L 12.550781 -53.351562 C 12.550781 -54.589844 11.59375 -55.546875 10.355469 -55.546875 Z M 10.355469 -55.546875 "/></g></g></g><g fill="#d9d9d9" fill-opacity="1"><g transform="translate(257.055211, 201.562123)"><g><path d="M 42.941406 -35.90625 C 42.378906 -38.269531 41.421875 -40.238281 40.238281 -41.816406 C 39 -43.335938 37.367188 -44.515625 35.457031 -45.246094 C 33.542969 -45.980469 31.289062 -46.375 28.644531 -46.375 L 9.003906 -46.375 L 9.003906 -46.316406 C 7.371094 -46.203125 5.964844 -45.304688 5.121094 -43.953125 C 4.894531 -43.503906 4.671875 -42.996094 4.558594 -42.546875 L 4.503906 -4.109375 C 4.613281 -3.488281 4.839844 -2.871094 5.121094 -2.363281 C 6.023438 -0.84375 7.652344 0.0546875 9.398438 0.0546875 L 28.644531 0.0546875 C 31.289062 0.0546875 33.597656 -0.335938 35.457031 -1.070312 C 37.367188 -1.800781 39 -2.984375 40.238281 -4.558594 C 41.421875 -6.078125 42.378906 -8.046875 42.941406 -10.410156 C 43.503906 -12.773438 43.785156 -15.589844 43.785156 -18.742188 L 43.785156 -27.578125 C 43.785156 -30.726562 43.503906 -33.542969 42.941406 -35.90625 Z M 12.773438 -8.609375 L 12.773438 -37.707031 C 12.773438 -37.929688 12.832031 -38.042969 12.886719 -38.042969 L 28.476562 -38.042969 C 29.769531 -38.042969 30.898438 -37.875 31.796875 -37.539062 C 32.699219 -37.199219 33.371094 -36.75 33.878906 -36.019531 C 34.441406 -35.285156 34.835938 -34.328125 35.0625 -33.148438 C 35.285156 -31.851562 35.457031 -30.277344 35.457031 -28.421875 L 35.457031 -17.894531 C 35.457031 -16.039062 35.285156 -14.464844 35.0625 -13.226562 C 34.835938 -11.988281 34.441406 -11.03125 33.878906 -10.300781 C 33.371094 -9.625 32.699219 -9.117188 31.796875 -8.78125 C 30.898438 -8.441406 29.769531 -8.328125 28.476562 -8.328125 L 12.832031 -8.328125 C 12.832031 -8.328125 12.773438 -8.386719 12.773438 -8.609375 Z M 12.773438 -8.609375 "/></g></g></g><g fill="#f10065" fill-opacity="1"><g transform="translate(83.918405, 234.708647)"><g><path d="M 8.464844 -9.5 L 8.464844 -11.898438 L 1.359375 -11.898438 L 1.359375 0 L 3.925781 0 L 3.925781 -4.554688 L 8.023438 -4.554688 L 8.023438 -6.882812 L 3.925781 -6.882812 L 3.925781 -9.5 Z M 8.464844 -9.5 "/></g></g></g><g fill="#f10065" fill-opacity="1"><g transform="translate(95.576206, 234.708647)"><g><path d="M 7 0.273438 C 10.621094 0.273438 13.324219 -2.394531 13.324219 -5.949219 C 13.324219 -9.484375 10.621094 -12.152344 7 -12.152344 C 3.363281 -12.152344 0.644531 -9.464844 0.644531 -5.949219 C 0.644531 -2.414062 3.363281 0.273438 7 0.273438 Z M 7 -2.160156 C 4.878906 -2.160156 3.261719 -3.808594 3.261719 -5.949219 C 3.261719 -8.089844 4.878906 -9.722656 7 -9.722656 C 9.125 -9.722656 10.707031 -8.105469 10.707031 -5.949219 C 10.707031 -3.789062 9.125 -2.160156 7 -2.160156 Z M 7 -2.160156 "/></g></g></g><g fill="#f10065" fill-opacity="1"><g transform="translate(112.127752, 234.708647)"><g><path d="M 7.902344 0 L 10.773438 0 L 8.140625 -4.488281 C 9.464844 -5.132812 10.316406 -6.390625 10.316406 -7.953125 C 10.316406 -10.246094 8.53125 -11.898438 6.152344 -11.898438 L 1.359375 -11.898438 L 1.359375 0 L 3.925781 0 L 3.925781 -4.042969 L 5.574219 -4.042969 Z M 3.925781 -9.515625 L 5.980469 -9.515625 C 7.070312 -9.515625 7.699219 -8.855469 7.699219 -7.96875 C 7.699219 -7.070312 7.070312 -6.425781 5.980469 -6.425781 L 3.925781 -6.425781 Z M 3.925781 -9.515625 "/></g></g></g><g fill="#f10065" fill-opacity="1"><g transform="translate(125.926571, 234.708647)"><g/></g></g><g fill="#f10065" fill-opacity="1"><g transform="translate(132.554693, 234.708647)"><g><path d="M 6.816406 0.273438 C 9.753906 0.273438 12.066406 -1.699219 12.609375 -4.640625 L 10.011719 -4.640625 C 9.585938 -3.144531 8.378906 -2.191406 6.816406 -2.191406 C 4.792969 -2.191406 3.28125 -3.789062 3.28125 -5.929688 C 3.28125 -8.074219 4.792969 -9.6875 6.816406 -9.6875 C 8.3125 -9.6875 9.5 -8.804688 9.992188 -7.410156 L 12.558594 -7.410156 C 12.015625 -10.230469 9.703125 -12.152344 6.816406 -12.152344 C 3.3125 -12.152344 0.664062 -9.464844 0.664062 -5.929688 C 0.664062 -2.414062 3.3125 0.273438 6.816406 0.273438 Z M 6.816406 0.273438 "/></g></g></g><g fill="#f10065" fill-opacity="1"><g transform="translate(148.222638, 234.708647)"><g><path d="M 7 0.273438 C 10.621094 0.273438 13.324219 -2.394531 13.324219 -5.949219 C 13.324219 -9.484375 10.621094 -12.152344 7 -12.152344 C 3.363281 -12.152344 0.644531 -9.464844 0.644531 -5.949219 C 0.644531 -2.414062 3.363281 0.273438 7 0.273438 Z M 7 -2.160156 C 4.878906 -2.160156 3.261719 -3.808594 3.261719 -5.949219 C 3.261719 -8.089844 4.878906 -9.722656 7 -9.722656 C 9.125 -9.722656 10.707031 -8.105469 10.707031 -5.949219 C 10.707031 -3.789062 9.125 -2.160156 7 -2.160156 Z M 7 -2.160156 "/></g></g></g><g fill="#f10065" fill-opacity="1"><g transform="translate(164.774181, 234.708647)"><g><path d="M 8.886719 -11.898438 L 8.886719 -4.640625 L 3.671875 -11.898438 L 1.359375 -11.898438 L 1.359375 0 L 3.875 0 L 3.875 -7.425781 L 9.261719 0 L 11.421875 0 L 11.421875 -11.898438 Z M 8.886719 -11.898438 "/></g></g></g><g fill="#f10065" fill-opacity="1"><g transform="translate(180.119277, 234.708647)"><g><path d="M 9.550781 -11.898438 L 0.355469 -11.898438 L 0.355469 -9.5 L 3.671875 -9.5 L 3.671875 0 L 6.238281 0 L 6.238281 -9.5 L 9.550781 -9.5 Z M 9.550781 -11.898438 "/></g></g></g><g fill="#f10065" fill-opacity="1"><g transform="translate(192.60969, 234.708647)"><g><path d="M 7.902344 0 L 10.773438 0 L 8.140625 -4.488281 C 9.464844 -5.132812 10.316406 -6.390625 10.316406 -7.953125 C 10.316406 -10.246094 8.53125 -11.898438 6.152344 -11.898438 L 1.359375 -11.898438 L 1.359375 0 L 3.925781 0 L 3.925781 -4.042969 L 5.574219 -4.042969 Z M 3.925781 -9.515625 L 5.980469 -9.515625 C 7.070312 -9.515625 7.699219 -8.855469 7.699219 -7.96875 C 7.699219 -7.070312 7.070312 -6.425781 5.980469 -6.425781 L 3.925781 -6.425781 Z M 3.925781 -9.515625 "/></g></g></g><g fill="#f10065" fill-opacity="1"><g transform="translate(206.408505, 234.708647)"><g><path d="M 9.246094 0 L 12.050781 0 L 7.238281 -11.898438 L 4.808594 -11.898438 L 0.136719 0 L 2.871094 0 L 3.6875 -2.242188 L 8.414062 -2.242188 Z M 6.050781 -8.753906 L 7.613281 -4.488281 L 4.488281 -4.488281 Z M 6.050781 -8.753906 "/></g></g></g><g fill="#f10065" fill-opacity="1"><g transform="translate(221.175869, 234.708647)"><g><path d="M 6.816406 0.273438 C 9.753906 0.273438 12.066406 -1.699219 12.609375 -4.640625 L 10.011719 -4.640625 C 9.585938 -3.144531 8.378906 -2.191406 6.816406 -2.191406 C 4.792969 -2.191406 3.28125 -3.789062 3.28125 -5.929688 C 3.28125 -8.074219 4.792969 -9.6875 6.816406 -9.6875 C 8.3125 -9.6875 9.5 -8.804688 9.992188 -7.410156 L 12.558594 -7.410156 C 12.015625 -10.230469 9.703125 -12.152344 6.816406 -12.152344 C 3.3125 -12.152344 0.664062 -9.464844 0.664062 -5.929688 C 0.664062 -2.414062 3.3125 0.273438 6.816406 0.273438 Z M 6.816406 0.273438 "/></g></g></g><g fill="#f10065" fill-opacity="1"><g transform="translate(236.843813, 234.708647)"><g><path d="M 9.550781 -11.898438 L 0.355469 -11.898438 L 0.355469 -9.5 L 3.671875 -9.5 L 3.671875 0 L 6.238281 0 L 6.238281 -9.5 L 9.550781 -9.5 Z M 9.550781 -11.898438 "/></g></g></g><g fill="#f10065" fill-opacity="1"><g transform="translate(249.334226, 234.708647)"><g><path d="M 7 0.273438 C 10.621094 0.273438 13.324219 -2.394531 13.324219 -5.949219 C 13.324219 -9.484375 10.621094 -12.152344 7 -12.152344 C 3.363281 -12.152344 0.644531 -9.464844 0.644531 -5.949219 C 0.644531 -2.414062 3.363281 0.273438 7 0.273438 Z M 7 -2.160156 C 4.878906 -2.160156 3.261719 -3.808594 3.261719 -5.949219 C 3.261719 -8.089844 4.878906 -9.722656 7 -9.722656 C 9.125 -9.722656 10.707031 -8.105469 10.707031 -5.949219 C 10.707031 -3.789062 9.125 -2.160156 7 -2.160156 Z M 7 -2.160156 "/></g></g></g><g fill="#f10065" fill-opacity="1"><g transform="translate(265.885769, 234.708647)"><g><path d="M 7.902344 0 L 10.773438 0 L 8.140625 -4.488281 C 9.464844 -5.132812 10.316406 -6.390625 10.316406 -7.953125 C 10.316406 -10.246094 8.53125 -11.898438 6.152344 -11.898438 L 1.359375 -11.898438 L 1.359375 0 L 3.925781 0 L 3.925781 -4.042969 L 5.574219 -4.042969 Z M 3.925781 -9.515625 L 5.980469 -9.515625 C 7.070312 -9.515625 7.699219 -8.855469 7.699219 -7.96875 C 7.699219 -7.070312 7.070312 -6.425781 5.980469 -6.425781 L 3.925781 -6.425781 Z M 3.925781 -9.515625 "/></g></g></g><g fill="#f10065" fill-opacity="1"><g transform="translate(279.684597, 234.708647)"><g><path d="M 5.300781 0.238281 C 7.765625 0.238281 9.804688 -1.003906 9.804688 -3.570312 C 9.804688 -6.238281 7.527344 -6.796875 5.726562 -7.257812 C 4.453125 -7.5625 3.433594 -7.816406 3.433594 -8.652344 C 3.433594 -9.433594 4.265625 -9.789062 5.097656 -9.789062 C 6.066406 -9.789062 6.917969 -9.3125 6.917969 -8.277344 L 9.449219 -8.277344 C 9.449219 -10.65625 7.902344 -12.117188 5.167969 -12.117188 C 2.53125 -12.117188 0.851562 -10.824219 0.851562 -8.546875 C 0.851562 -5.980469 3.023438 -5.457031 4.828125 -5.011719 C 6.117188 -4.726562 7.207031 -4.46875 7.207031 -3.535156 C 7.207031 -2.652344 6.253906 -2.140625 5.285156 -2.140625 C 4.230469 -2.140625 3.28125 -2.703125 3.28125 -3.839844 L 0.679688 -3.839844 C 0.679688 -1.292969 2.566406 0.238281 5.300781 0.238281 Z M 5.300781 0.238281 "/></g></g></g></svg>